<svg xmlns="http://www.w3.org/2000/svg" viewBox="0 0 256 256" aria-hidden="true">
  <rect width="256" height="256" rx="56" fill="#fff"/>
  <path fill="#1557A6" d="M42 82h104c31 0 56 21 68 52-12 31-37 52-68 52H42V82Z"/>
  <path fill="#fff" d="M77 113c15 0 27 10 27 25 0 17-12 27-30 27-10 0-20-4-27-11l11-13c4 4 9 7 16 7 7 0 12-3 12-9 0-5-4-8-11-8H64v-13h11c6 0 10-3 10-8s-4-8-10-8c-6 0-11 3-15 7l-10-13c7-7 16-11 27-11Zm37 0h20l16 26 16-26h20v52h-17v-26l-14 22h-10l-14-22v26h-17v-52Z"/>
  <path fill="#E30613" d="M212 75a16 16 0 1 1 0 32 16 16 0 0 1 0-32Z"/>
</svg>
